<svg xmlns="http://www.w3.org/2000/svg" xmlns:xlink="http://www.w3.org/1999/xlink" width="500" zoomAndPan="magnify" viewBox="0 0 375 374.999991" height="500" preserveAspectRatio="xMidYMid meet" version="1.0"><defs><g/></defs><rect x="-37.5" width="450" fill="#ffffff" y="-37.499999" height="449.999989" fill-opacity="1"/><rect x="-37.5" width="450" fill="#ffffff" y="-37.499999" height="449.999989" fill-opacity="1"/><rect x="-37.5" width="450" fill="#ffffff" y="-37.499999" height="449.999989" fill-opacity="1"/><g fill="#000000" fill-opacity="1"><g transform="translate(8.707035, 257.249983)"><g><path d="M 12.203125 0 L 12.203125 -142 L 51.203125 -142 L 51.203125 0 Z M 12.203125 0 "/></g></g></g><g fill="#000000" fill-opacity="1"><g transform="translate(72.105331, 257.249983)"><g><path d="M 51.203125 -69.796875 L 51.203125 0 L 12.203125 0 L 12.203125 -142 L 42.59375 -142 L 99.59375 -69.796875 L 99.59375 -142 L 138.59375 -142 L 138.59375 0 L 107.59375 0 Z M 51.203125 -69.796875 "/></g></g></g><g fill="#000000" fill-opacity="1"><g transform="translate(222.901304, 257.249983)"><g><path d="M 12.203125 0 L 12.203125 -142 L 66.796875 -142 C 78.535156 -142 88.867188 -140.128906 97.796875 -136.390625 C 106.734375 -132.660156 114.203125 -127.59375 120.203125 -121.1875 C 126.203125 -114.789062 130.734375 -107.289062 133.796875 -98.6875 C 136.867188 -90.09375 138.40625 -80.929688 138.40625 -71.203125 C 138.40625 -60.398438 136.703125 -50.628906 133.296875 -41.890625 C 129.898438 -33.160156 125.066406 -25.695312 118.796875 -19.5 C 112.535156 -13.300781 105.003906 -8.5 96.203125 -5.09375 C 87.398438 -1.695312 77.597656 0 66.796875 0 Z M 98.796875 -71.203125 C 98.796875 -76.671875 98.0625 -81.671875 96.59375 -86.203125 C 95.132812 -90.734375 93.035156 -94.597656 90.296875 -97.796875 C 87.566406 -100.992188 84.203125 -103.492188 80.203125 -105.296875 C 76.203125 -107.097656 71.734375 -108 66.796875 -108 L 51.203125 -108 L 51.203125 -34 L 66.796875 -34 C 71.867188 -34 76.40625 -34.929688 80.40625 -36.796875 C 84.40625 -38.660156 87.769531 -41.257812 90.5 -44.59375 C 93.226562 -47.925781 95.289062 -51.859375 96.6875 -56.390625 C 98.09375 -60.929688 98.796875 -65.867188 98.796875 -71.203125 Z M 98.796875 -71.203125 "/></g></g></g></svg>