<svg xmlns="http://www.w3.org/2000/svg" xmlns:xlink="http://www.w3.org/1999/xlink" width="500" zoomAndPan="magnify" viewBox="0 0 375 374.999991" height="500" preserveAspectRatio="xMidYMid meet" version="1.0"><path fill="#05338d" d="M 38.300781 0 L 336.699219 0 C 357.917969 0 375 17.082031 375 38.300781 L 375 336.699219 C 375 357.917969 357.917969 375 336.699219 375 L 38.300781 375 C 17.082031 375 0 357.917969 0 336.699219 L 0 38.300781 C 0 17.082031 17.082031 0 38.300781 0 Z M 38.300781 0 " fill-opacity="1" fill-rule="nonzero"/><path fill="#ffffff" d="M 367.5 187.5 C 367.5 190.445312 367.425781 193.390625 367.28125 196.332031 C 367.136719 199.273438 366.921875 202.210938 366.632812 205.144531 C 366.34375 208.074219 365.984375 210.996094 365.550781 213.910156 C 365.117188 216.824219 364.613281 219.726562 364.039062 222.617188 C 363.464844 225.503906 362.820312 228.378906 362.105469 231.238281 C 361.386719 234.09375 360.601562 236.933594 359.746094 239.75 C 358.894531 242.570312 357.96875 245.367188 356.976562 248.140625 C 355.984375 250.914062 354.925781 253.660156 353.796875 256.382812 C 352.667969 259.105469 351.476562 261.796875 350.214844 264.460938 C 348.957031 267.121094 347.632812 269.753906 346.246094 272.351562 C 344.855469 274.949219 343.40625 277.511719 341.890625 280.039062 C 340.375 282.566406 338.800781 285.054688 337.164062 287.503906 C 335.527344 289.953125 333.832031 292.359375 332.074219 294.726562 C 330.320312 297.089844 328.507812 299.414062 326.640625 301.691406 C 324.773438 303.96875 322.847656 306.199219 320.871094 308.378906 C 318.890625 310.5625 316.859375 312.695312 314.777344 314.777344 C 312.695312 316.863281 310.5625 318.890625 308.378906 320.871094 C 306.195312 322.847656 303.96875 324.773438 301.691406 326.640625 C 299.414062 328.511719 297.089844 330.320312 294.726562 332.078125 C 292.359375 333.832031 289.949219 335.527344 287.5 337.164062 C 285.050781 338.800781 282.5625 340.375 280.039062 341.890625 C 277.511719 343.40625 274.949219 344.855469 272.351562 346.246094 C 269.753906 347.632812 267.121094 348.957031 264.457031 350.21875 C 261.796875 351.476562 259.105469 352.671875 256.382812 353.796875 C 253.660156 354.925781 250.914062 355.984375 248.140625 356.976562 C 245.367188 357.96875 242.570312 358.894531 239.75 359.75 C 236.929688 360.605469 234.09375 361.390625 231.234375 362.105469 C 228.378906 362.820312 225.503906 363.464844 222.617188 364.039062 C 219.726562 364.617188 216.824219 365.117188 213.910156 365.550781 C 210.996094 365.984375 208.074219 366.34375 205.140625 366.632812 C 202.210938 366.921875 199.273438 367.136719 196.332031 367.28125 C 193.390625 367.425781 190.445312 367.5 187.5 367.5 C 184.554688 367.5 181.609375 367.425781 178.667969 367.28125 C 175.726562 367.136719 172.789062 366.921875 169.855469 366.632812 C 166.925781 366.34375 164 365.984375 161.089844 365.550781 C 158.175781 365.117188 155.273438 364.617188 152.382812 364.039062 C 149.492188 363.464844 146.621094 362.820312 143.761719 362.105469 C 140.90625 361.390625 138.066406 360.605469 135.25 359.75 C 132.429688 358.894531 129.632812 357.96875 126.859375 356.976562 C 124.085938 355.984375 121.339844 354.925781 118.617188 353.796875 C 115.894531 352.671875 113.203125 351.476562 110.539062 350.21875 C 107.875 348.957031 105.246094 347.632812 102.648438 346.246094 C 100.050781 344.855469 97.488281 343.40625 94.960938 341.890625 C 92.433594 340.375 89.945312 338.800781 87.496094 337.164062 C 85.046875 335.527344 82.640625 333.832031 80.273438 332.078125 C 77.90625 330.320312 75.585938 328.511719 73.308594 326.640625 C 71.03125 324.773438 68.800781 322.847656 66.621094 320.871094 C 64.4375 318.890625 62.304688 316.863281 60.21875 314.777344 C 58.136719 312.695312 56.105469 310.5625 54.128906 308.378906 C 52.148438 306.199219 50.226562 303.96875 48.359375 301.691406 C 46.488281 299.414062 44.675781 297.089844 42.921875 294.726562 C 41.167969 292.359375 39.472656 289.953125 37.835938 287.503906 C 36.199219 285.054688 34.625 282.566406 33.109375 280.039062 C 31.59375 277.511719 30.144531 274.949219 28.753906 272.351562 C 27.367188 269.753906 26.042969 267.121094 24.78125 264.460938 C 23.523438 261.796875 22.328125 259.105469 21.203125 256.382812 C 20.074219 253.660156 19.015625 250.914062 18.023438 248.140625 C 17.03125 245.367188 16.105469 242.570312 15.25 239.75 C 14.394531 236.933594 13.609375 234.09375 12.894531 231.238281 C 12.179688 228.378906 11.535156 225.503906 10.957031 222.617188 C 10.382812 219.726562 9.878906 216.824219 9.449219 213.910156 C 9.015625 210.996094 8.65625 208.074219 8.367188 205.144531 C 8.078125 202.210938 7.863281 199.273438 7.71875 196.332031 C 7.574219 193.390625 7.5 190.445312 7.5 187.5 C 7.5 184.554688 7.574219 181.609375 7.71875 178.667969 C 7.863281 175.726562 8.078125 172.789062 8.367188 169.855469 C 8.65625 166.925781 9.015625 164.003906 9.449219 161.089844 C 9.878906 158.175781 10.382812 155.273438 10.957031 152.382812 C 11.535156 149.496094 12.179688 146.621094 12.894531 143.765625 C 13.609375 140.90625 14.394531 138.066406 15.25 135.25 C 16.105469 132.429688 17.03125 129.632812 18.023438 126.859375 C 19.015625 124.085938 20.074219 121.339844 21.203125 118.617188 C 22.328125 115.894531 23.523438 113.203125 24.78125 110.539062 C 26.042969 107.878906 27.367188 105.246094 28.753906 102.648438 C 30.144531 100.050781 31.59375 97.488281 33.109375 94.960938 C 34.625 92.433594 36.199219 89.945312 37.835938 87.496094 C 39.472656 85.046875 41.167969 82.640625 42.921875 80.273438 C 44.675781 77.910156 46.488281 75.585938 48.359375 73.308594 C 50.226562 71.03125 52.148438 68.800781 54.128906 66.621094 C 56.105469 64.4375 58.136719 62.304688 60.21875 60.222656 C 62.304688 58.136719 64.4375 56.109375 66.621094 54.128906 C 68.800781 52.152344 71.03125 50.226562 73.308594 48.359375 C 75.585938 46.488281 77.90625 44.679688 80.273438 42.921875 C 82.640625 41.167969 85.046875 39.472656 87.496094 37.835938 C 89.945312 36.199219 92.433594 34.625 94.960938 33.109375 C 97.488281 31.59375 100.050781 30.144531 102.648438 28.753906 C 105.246094 27.367188 107.875 26.042969 110.539062 24.78125 C 113.203125 23.523438 115.894531 22.328125 118.617188 21.203125 C 121.339844 20.074219 124.085938 19.015625 126.859375 18.023438 C 129.632812 17.03125 132.429688 16.105469 135.25 15.25 C 138.066406 14.394531 140.90625 13.609375 143.761719 12.894531 C 146.621094 12.179688 149.492188 11.535156 152.382812 10.960938 C 155.273438 10.386719 158.175781 9.882812 161.089844 9.449219 C 164 9.015625 166.925781 8.65625 169.855469 8.367188 C 172.789062 8.078125 175.726562 7.863281 178.667969 7.71875 C 181.609375 7.574219 184.554688 7.5 187.5 7.5 C 190.445312 7.5 193.390625 7.574219 196.332031 7.71875 C 199.273438 7.863281 202.210938 8.078125 205.140625 8.367188 C 208.074219 8.65625 210.996094 9.015625 213.910156 9.449219 C 216.824219 9.882812 219.726562 10.386719 222.617188 10.960938 C 225.503906 11.535156 228.378906 12.179688 231.234375 12.894531 C 234.09375 13.609375 236.929688 14.394531 239.75 15.25 C 242.570312 16.105469 245.367188 17.03125 248.140625 18.023438 C 250.914062 19.015625 253.660156 20.074219 256.382812 21.203125 C 259.105469 22.328125 261.796875 23.523438 264.457031 24.78125 C 267.121094 26.042969 269.753906 27.367188 272.351562 28.753906 C 274.949219 30.144531 277.511719 31.59375 280.039062 33.109375 C 282.5625 34.625 285.050781 36.199219 287.5 37.835938 C 289.949219 39.472656 292.359375 41.167969 294.726562 42.921875 C 297.089844 44.679688 299.414062 46.488281 301.691406 48.359375 C 303.96875 50.226562 306.195312 52.152344 308.378906 54.128906 C 310.5625 56.109375 312.695312 58.136719 314.777344 60.222656 C 316.859375 62.304688 318.890625 64.4375 320.871094 66.621094 C 322.847656 68.800781 324.773438 71.03125 326.640625 73.308594 C 328.507812 75.585938 330.320312 77.910156 332.074219 80.273438 C 333.832031 82.640625 335.527344 85.046875 337.164062 87.496094 C 338.800781 89.945312 340.375 92.433594 341.890625 94.960938 C 343.40625 97.488281 344.855469 100.050781 346.246094 102.648438 C 347.632812 105.246094 348.957031 107.878906 350.214844 110.539062 C 351.476562 113.203125 352.667969 115.894531 353.796875 118.617188 C 354.925781 121.339844 355.984375 124.085938 356.976562 126.859375 C 357.96875 129.632812 358.894531 132.429688 359.746094 135.25 C 360.601562 138.066406 361.386719 140.90625 362.105469 143.765625 C 362.820312 146.621094 363.464844 149.496094 364.039062 152.382812 C 364.613281 155.273438 365.117188 158.175781 365.550781 161.089844 C 365.984375 164.003906 366.34375 166.925781 366.632812 169.855469 C 366.921875 172.789062 367.136719 175.726562 367.28125 178.667969 C 367.425781 181.609375 367.5 184.554688 367.5 187.5 Z M 367.5 187.5 " fill-opacity="1" fill-rule="nonzero"/><path fill="#05338d" d="M 347.5 187.5 C 347.5 190.117188 347.4375 192.734375 347.308594 195.351562 C 347.179688 197.964844 346.988281 200.578125 346.730469 203.183594 C 346.472656 205.789062 346.152344 208.386719 345.769531 210.976562 C 345.382812 213.566406 344.9375 216.148438 344.425781 218.714844 C 343.914062 221.28125 343.339844 223.835938 342.707031 226.378906 C 342.070312 228.917969 341.371094 231.441406 340.609375 233.945312 C 339.851562 236.453125 339.03125 238.9375 338.148438 241.402344 C 337.265625 243.867188 336.324219 246.3125 335.320312 248.730469 C 334.320312 251.148438 333.257812 253.542969 332.136719 255.910156 C 331.019531 258.277344 329.84375 260.613281 328.609375 262.925781 C 327.375 265.234375 326.082031 267.511719 324.738281 269.757812 C 323.390625 272.003906 321.988281 274.214844 320.535156 276.390625 C 319.082031 278.570312 317.574219 280.710938 316.011719 282.8125 C 314.453125 284.914062 312.84375 286.980469 311.183594 289.003906 C 309.519531 291.027344 307.8125 293.011719 306.050781 294.949219 C 304.292969 296.890625 302.488281 298.785156 300.636719 300.636719 C 298.785156 302.488281 296.890625 304.292969 294.949219 306.054688 C 293.007812 307.8125 291.027344 309.519531 289.003906 311.183594 C 286.980469 312.84375 284.914062 314.453125 282.8125 316.015625 C 280.707031 317.574219 278.570312 319.082031 276.390625 320.535156 C 274.214844 321.992188 272.003906 323.390625 269.757812 324.738281 C 267.511719 326.082031 265.234375 327.375 262.921875 328.609375 C 260.613281 329.84375 258.277344 331.019531 255.910156 332.140625 C 253.542969 333.257812 251.148438 334.320312 248.730469 335.320312 C 246.308594 336.324219 243.867188 337.265625 241.402344 338.148438 C 238.9375 339.03125 236.449219 339.851562 233.945312 340.613281 C 231.4375 341.371094 228.917969 342.070312 226.375 342.707031 C 223.835938 343.34375 221.28125 343.914062 218.714844 344.425781 C 216.144531 344.9375 213.566406 345.386719 210.976562 345.769531 C 208.386719 346.152344 205.789062 346.472656 203.183594 346.730469 C 200.578125 346.988281 197.964844 347.179688 195.351562 347.308594 C 192.734375 347.4375 190.117188 347.5 187.5 347.5 C 184.878906 347.5 182.265625 347.4375 179.648438 347.308594 C 177.03125 347.179688 174.421875 346.988281 171.816406 346.730469 C 169.210938 346.472656 166.613281 346.152344 164.023438 345.769531 C 161.433594 345.386719 158.851562 344.9375 156.285156 344.425781 C 153.714844 343.914062 151.164062 343.34375 148.621094 342.707031 C 146.082031 342.070312 143.558594 341.371094 141.054688 340.613281 C 138.546875 339.851562 136.0625 339.03125 133.597656 338.148438 C 131.132812 337.265625 128.6875 336.324219 126.269531 335.320312 C 123.851562 334.320312 121.457031 333.257812 119.089844 332.140625 C 116.722656 331.019531 114.382812 329.84375 112.074219 328.609375 C 109.765625 327.375 107.488281 326.082031 105.242188 324.738281 C 102.996094 323.390625 100.785156 321.992188 98.609375 320.535156 C 96.429688 319.082031 94.289062 317.574219 92.1875 316.015625 C 90.082031 314.453125 88.019531 312.84375 85.996094 311.183594 C 83.972656 309.519531 81.988281 307.8125 80.050781 306.054688 C 78.109375 304.292969 76.214844 302.488281 74.363281 300.636719 C 72.511719 298.785156 70.703125 296.890625 68.945312 294.949219 C 67.1875 293.011719 65.476562 291.027344 63.816406 289.003906 C 62.15625 286.980469 60.546875 284.914062 58.984375 282.8125 C 57.425781 280.710938 55.917969 278.570312 54.464844 276.390625 C 53.007812 274.214844 51.609375 272.003906 50.261719 269.757812 C 48.914062 267.511719 47.625 265.234375 46.390625 262.925781 C 45.15625 260.613281 43.980469 258.277344 42.859375 255.910156 C 41.742188 253.542969 40.679688 251.148438 39.675781 248.730469 C 38.675781 246.3125 37.734375 243.867188 36.851562 241.402344 C 35.96875 238.9375 35.148438 236.453125 34.386719 233.945312 C 33.628906 231.441406 32.929688 228.917969 32.292969 226.378906 C 31.65625 223.835938 31.082031 221.28125 30.574219 218.714844 C 30.0625 216.148438 29.613281 213.566406 29.230469 210.976562 C 28.847656 208.386719 28.527344 205.789062 28.269531 203.183594 C 28.011719 200.578125 27.820312 197.964844 27.691406 195.351562 C 27.5625 192.734375 27.5 190.117188 27.5 187.5 C 27.5 184.882812 27.5625 182.265625 27.691406 179.648438 C 27.820312 177.035156 28.011719 174.421875 28.269531 171.816406 C 28.527344 169.210938 28.847656 166.613281 29.230469 164.023438 C 29.613281 161.433594 30.0625 158.855469 30.574219 156.285156 C 31.082031 153.71875 31.65625 151.164062 32.292969 148.621094 C 32.929688 146.082031 33.628906 143.558594 34.386719 141.054688 C 35.148438 138.546875 35.96875 136.0625 36.851562 133.597656 C 37.734375 131.132812 38.675781 128.691406 39.675781 126.269531 C 40.679688 123.851562 41.742188 121.457031 42.859375 119.089844 C 43.980469 116.722656 45.15625 114.386719 46.390625 112.074219 C 47.625 109.765625 48.914062 107.488281 50.261719 105.242188 C 51.609375 102.996094 53.007812 100.785156 54.464844 98.609375 C 55.917969 96.429688 57.425781 94.289062 58.984375 92.1875 C 60.546875 90.085938 62.15625 88.019531 63.816406 85.996094 C 65.476562 83.972656 67.1875 81.988281 68.945312 80.050781 C 70.703125 78.109375 72.511719 76.214844 74.363281 74.363281 C 76.214844 72.511719 78.109375 70.707031 80.050781 68.945312 C 81.988281 67.1875 83.972656 65.480469 85.996094 63.816406 C 88.019531 62.15625 90.082031 60.546875 92.1875 58.984375 C 94.289062 57.425781 96.429688 55.917969 98.609375 54.464844 C 100.785156 53.007812 102.996094 51.609375 105.242188 50.261719 C 107.488281 48.917969 109.765625 47.625 112.074219 46.390625 C 114.382812 45.15625 116.722656 43.980469 119.089844 42.859375 C 121.457031 41.742188 123.851562 40.679688 126.269531 39.679688 C 128.6875 38.675781 131.132812 37.734375 133.597656 36.851562 C 136.0625 35.96875 138.546875 35.148438 141.054688 34.390625 C 143.558594 33.628906 146.082031 32.929688 148.621094 32.292969 C 151.164062 31.65625 153.714844 31.085938 156.285156 30.574219 C 158.851562 30.0625 161.433594 29.613281 164.023438 29.230469 C 166.613281 28.847656 169.210938 28.527344 171.816406 28.269531 C 174.421875 28.011719 177.03125 27.820312 179.648438 27.691406 C 182.265625 27.5625 184.878906 27.5 187.5 27.5 C 190.117188 27.5 192.734375 27.5625 195.351562 27.691406 C 197.964844 27.820312 200.578125 28.011719 203.183594 28.269531 C 205.789062 28.527344 208.386719 28.847656 210.976562 29.230469 C 213.566406 29.613281 216.144531 30.0625 218.714844 30.574219 C 221.28125 31.085938 223.835938 31.65625 226.375 32.292969 C 228.917969 32.929688 231.4375 33.628906 233.945312 34.386719 C 236.449219 35.148438 238.9375 35.96875 241.402344 36.851562 C 243.867188 37.734375 246.308594 38.675781 248.730469 39.679688 C 251.148438 40.679688 253.542969 41.742188 255.910156 42.859375 C 258.277344 43.980469 260.613281 45.15625 262.921875 46.390625 C 265.234375 47.625 267.511719 48.917969 269.757812 50.261719 C 272.003906 51.609375 274.214844 53.007812 276.390625 54.464844 C 278.570312 55.917969 280.707031 57.425781 282.8125 58.984375 C 284.914062 60.546875 286.980469 62.15625 289.003906 63.816406 C 291.027344 65.480469 293.007812 67.1875 294.949219 68.945312 C 296.890625 70.707031 298.785156 72.511719 300.636719 74.363281 C 302.488281 76.214844 304.292969 78.109375 306.050781 80.050781 C 307.8125 81.988281 309.519531 83.972656 311.183594 85.996094 C 312.84375 88.019531 314.453125 90.085938 316.011719 92.1875 C 317.574219 94.289062 319.082031 96.429688 320.535156 98.609375 C 321.988281 100.785156 323.390625 102.996094 324.738281 105.242188 C 326.082031 107.488281 327.375 109.765625 328.609375 112.074219 C 329.84375 114.386719 331.019531 116.722656 332.136719 119.089844 C 333.257812 121.457031 334.320312 123.851562 335.320312 126.269531 C 336.324219 128.691406 337.265625 131.132812 338.148438 133.597656 C 339.03125 136.0625 339.851562 138.546875 340.609375 141.054688 C 341.371094 143.558594 342.070312 146.082031 342.707031 148.621094 C 343.339844 151.164062 343.914062 153.71875 344.425781 156.285156 C 344.9375 158.855469 345.382812 161.433594 345.769531 164.023438 C 346.152344 166.613281 346.472656 169.210938 346.730469 171.816406 C 346.988281 174.421875 347.179688 177.035156 347.308594 179.648438 C 347.4375 182.265625 347.5 184.882812 347.5 187.5 Z M 347.5 187.5 " fill-opacity="1" fill-rule="nonzero"/><path fill="#ffffff" d="M 327.5 187.5 C 327.5 189.792969 327.441406 192.082031 327.332031 194.371094 C 327.21875 196.65625 327.050781 198.941406 326.824219 201.222656 C 326.601562 203.503906 326.320312 205.777344 325.984375 208.042969 C 325.648438 210.308594 325.257812 212.566406 324.808594 214.8125 C 324.363281 217.058594 323.859375 219.292969 323.304688 221.515625 C 322.746094 223.738281 322.136719 225.945312 321.472656 228.140625 C 320.804688 230.332031 320.085938 232.507812 319.316406 234.664062 C 318.542969 236.820312 317.71875 238.957031 316.84375 241.074219 C 315.964844 243.191406 315.039062 245.285156 314.058594 247.359375 C 313.078125 249.429688 312.046875 251.476562 310.96875 253.496094 C 309.886719 255.515625 308.757812 257.507812 307.582031 259.472656 C 306.402344 261.4375 305.179688 263.375 303.90625 265.28125 C 302.632812 267.183594 301.3125 269.058594 299.949219 270.898438 C 298.582031 272.738281 297.175781 274.542969 295.71875 276.316406 C 294.265625 278.085938 292.769531 279.820312 291.230469 281.519531 C 289.695312 283.214844 288.113281 284.875 286.496094 286.496094 C 284.875 288.113281 283.214844 289.695312 281.515625 291.234375 C 279.820312 292.773438 278.085938 294.269531 276.3125 295.722656 C 274.542969 297.175781 272.738281 298.585938 270.898438 299.949219 C 269.058594 301.3125 267.183594 302.632812 265.277344 303.90625 C 263.375 305.179688 261.4375 306.402344 259.472656 307.582031 C 257.507812 308.757812 255.515625 309.890625 253.496094 310.96875 C 251.472656 312.050781 249.429688 313.078125 247.355469 314.058594 C 245.285156 315.039062 243.191406 315.964844 241.074219 316.84375 C 238.957031 317.71875 236.820312 318.542969 234.664062 319.316406 C 232.507812 320.085938 230.332031 320.804688 228.140625 321.472656 C 225.945312 322.136719 223.738281 322.746094 221.515625 323.304688 C 219.292969 323.859375 217.058594 324.363281 214.8125 324.808594 C 212.566406 325.257812 210.308594 325.648438 208.042969 325.984375 C 205.773438 326.320312 203.5 326.601562 201.222656 326.824219 C 198.941406 327.050781 196.65625 327.21875 194.367188 327.332031 C 192.082031 327.445312 189.789062 327.5 187.5 327.5 C 185.207031 327.5 182.917969 327.445312 180.628906 327.332031 C 178.339844 327.21875 176.058594 327.050781 173.777344 326.824219 C 171.496094 326.601562 169.222656 326.320312 166.957031 325.984375 C 164.691406 325.648438 162.433594 325.257812 160.1875 324.808594 C 157.941406 324.363281 155.703125 323.859375 153.480469 323.304688 C 151.257812 322.746094 149.050781 322.136719 146.859375 321.472656 C 144.667969 320.804688 142.492188 320.085938 140.335938 319.316406 C 138.175781 318.542969 136.039062 317.71875 133.921875 316.84375 C 131.808594 315.964844 129.714844 315.039062 127.640625 314.058594 C 125.570312 313.078125 123.523438 312.046875 121.503906 310.96875 C 119.484375 309.886719 117.492188 308.757812 115.523438 307.582031 C 113.558594 306.402344 111.625 305.179688 109.71875 303.90625 C 107.816406 302.632812 105.941406 301.3125 104.101562 299.949219 C 102.261719 298.585938 100.457031 297.175781 98.683594 295.722656 C 96.914062 294.269531 95.179688 292.773438 93.480469 291.234375 C 91.785156 289.695312 90.125 288.113281 88.503906 286.496094 C 86.882812 284.875 85.304688 283.214844 83.765625 281.519531 C 82.226562 279.820312 80.730469 278.085938 79.277344 276.316406 C 77.824219 274.542969 76.414062 272.738281 75.050781 270.898438 C 73.6875 269.058594 72.367188 267.183594 71.09375 265.28125 C 69.820312 263.375 68.59375 261.4375 67.417969 259.472656 C 66.238281 257.507812 65.109375 255.515625 64.03125 253.496094 C 62.949219 251.476562 61.921875 249.429688 60.941406 247.359375 C 59.960938 245.285156 59.035156 243.191406 58.15625 241.074219 C 57.28125 238.957031 56.457031 236.820312 55.683594 234.664062 C 54.910156 232.507812 54.191406 230.332031 53.527344 228.140625 C 52.863281 225.945312 52.25 223.738281 51.695312 221.515625 C 51.136719 219.292969 50.636719 217.058594 50.191406 214.8125 C 49.742188 212.566406 49.351562 210.308594 49.015625 208.042969 C 48.679688 205.777344 48.398438 203.503906 48.171875 201.222656 C 47.949219 198.941406 47.78125 196.65625 47.667969 194.371094 C 47.554688 192.082031 47.5 189.792969 47.5 187.5 C 47.5 185.207031 47.554688 182.917969 47.667969 180.628906 C 47.78125 178.34375 47.949219 176.058594 48.171875 173.777344 C 48.398438 171.496094 48.679688 169.222656 49.015625 166.957031 C 49.351562 164.691406 49.742188 162.433594 50.191406 160.1875 C 50.636719 157.941406 51.136719 155.707031 51.695312 153.484375 C 52.25 151.261719 52.863281 149.054688 53.527344 146.859375 C 54.191406 144.667969 54.910156 142.492188 55.683594 140.335938 C 56.457031 138.179688 57.28125 136.042969 58.15625 133.925781 C 59.035156 131.808594 59.960938 129.714844 60.941406 127.640625 C 61.921875 125.570312 62.949219 123.523438 64.03125 121.503906 C 65.109375 119.484375 66.238281 117.492188 67.417969 115.527344 C 68.59375 113.5625 69.820312 111.625 71.09375 109.71875 C 72.367188 107.816406 73.6875 105.941406 75.050781 104.101562 C 76.414062 102.261719 77.824219 100.457031 79.277344 98.683594 C 80.730469 96.914062 82.226562 95.179688 83.765625 93.480469 C 85.304688 91.785156 86.882812 90.125 88.503906 88.503906 C 90.125 86.886719 91.785156 85.304688 93.480469 83.765625 C 95.179688 82.226562 96.914062 80.730469 98.683594 79.277344 C 100.457031 77.824219 102.261719 76.414062 104.101562 75.050781 C 105.941406 73.6875 107.816406 72.367188 109.71875 71.09375 C 111.625 69.820312 113.558594 68.597656 115.523438 67.417969 C 117.492188 66.242188 119.484375 65.113281 121.503906 64.03125 C 123.523438 62.953125 125.570312 61.921875 127.640625 60.941406 C 129.714844 59.960938 131.808594 59.035156 133.921875 58.15625 C 136.039062 57.28125 138.175781 56.457031 140.335938 55.683594 C 142.492188 54.914062 144.667969 54.195312 146.859375 53.527344 C 149.050781 52.863281 151.257812 52.253906 153.480469 51.695312 C 155.703125 51.140625 157.941406 50.636719 160.1875 50.191406 C 162.433594 49.742188 164.691406 49.351562 166.957031 49.015625 C 169.222656 48.679688 171.496094 48.398438 173.777344 48.175781 C 176.058594 47.949219 178.339844 47.78125 180.628906 47.667969 C 182.917969 47.554688 185.207031 47.5 187.5 47.5 C 189.789062 47.5 192.082031 47.554688 194.367188 47.667969 C 196.65625 47.78125 198.941406 47.949219 201.222656 48.175781 C 203.5 48.398438 205.773438 48.679688 208.042969 49.015625 C 210.308594 49.351562 212.566406 49.742188 214.8125 50.191406 C 217.058594 50.636719 219.292969 51.140625 221.515625 51.695312 C 223.738281 52.253906 225.945312 52.863281 228.140625 53.527344 C 230.332031 54.195312 232.507812 54.914062 234.664062 55.683594 C 236.820312 56.457031 238.957031 57.28125 241.074219 58.15625 C 243.191406 59.035156 245.285156 59.960938 247.355469 60.941406 C 249.429688 61.921875 251.472656 62.953125 253.496094 64.03125 C 255.515625 65.113281 257.507812 66.242188 259.472656 67.417969 C 261.4375 68.597656 263.375 69.820312 265.277344 71.09375 C 267.183594 72.367188 269.058594 73.6875 270.898438 75.050781 C 272.738281 76.414062 274.542969 77.824219 276.3125 79.277344 C 278.085938 80.730469 279.820312 82.226562 281.515625 83.765625 C 283.214844 85.304688 284.875 86.886719 286.496094 88.503906 C 288.113281 90.125 289.695312 91.785156 291.230469 93.480469 C 292.769531 95.179688 294.265625 96.914062 295.71875 98.683594 C 297.175781 100.457031 298.582031 102.261719 299.949219 104.101562 C 301.3125 105.941406 302.632812 107.816406 303.90625 109.71875 C 305.179688 111.625 306.402344 113.558594 307.582031 115.527344 C 308.757812 117.492188 309.886719 119.484375 310.96875 121.503906 C 312.046875 123.523438 313.078125 125.570312 314.058594 127.640625 C 315.039062 129.714844 315.964844 131.808594 316.84375 133.925781 C 317.71875 136.042969 318.542969 138.179688 319.316406 140.335938 C 320.085938 142.492188 320.804688 144.667969 321.472656 146.859375 C 322.136719 149.054688 322.746094 151.261719 323.304688 153.484375 C 323.859375 155.707031 324.363281 157.941406 324.808594 160.1875 C 325.257812 162.433594 325.648438 164.691406 325.984375 166.957031 C 326.320312 169.222656 326.601562 171.496094 326.824219 173.777344 C 327.050781 176.058594 327.21875 178.34375 327.332031 180.628906 C 327.441406 182.917969 327.5 185.207031 327.5 187.5 Z M 327.5 187.5 " fill-opacity="1" fill-rule="nonzero"/><path fill="#06338e" d="M 115.953125 183.835938 C 120.460938 183.835938 121.023438 179.046875 121.023438 174.542969 L 121.023438 140.75 C 121.023438 134.835938 119.054688 132.300781 115.953125 132.300781 L 103.277344 132.300781 L 103.277344 183.835938 Z M 77.5 269.96875 L 77.5 104.300781 L 134.699219 104.300781 C 144.234375 104.300781 148.632812 116.761719 148.632812 129.222656 L 148.632812 180.535156 C 148.632812 195.199219 144.234375 210.589844 130.300781 210.589844 L 103.167969 210.589844 L 103.167969 270.699219 L 77.5 270.699219 Z M 174.550781 223.257812 L 189.199219 223.257812 L 181.875 188.058594 Z M 166.96875 247.976562 L 163.300781 269.96875 L 136.167969 269.96875 L 165.5 104.300781 L 198.5 104.300781 L 227.101562 269.96875 L 199.96875 269.96875 L 196.300781 247.976562 Z M 230.035156 269.96875 L 230.035156 104.300781 L 254.234375 104.300781 L 271.101562 162.210938 L 271.101562 104.300781 L 297.5 104.300781 L 297.5 269.96875 L 271.835938 269.96875 L 256.433594 219.386719 L 256.433594 269.96875 Z M 230.035156 269.96875 " fill-opacity="1" fill-rule="nonzero"/></svg>